<svg width="34" height="25" viewBox="0 0 34 25" fill="none" xmlns="http://www.w3.org/2000/svg">
<g clip-path="url(#clip0_6208_4683)">
<path d="M21.0326 24.2555H32.0801C32.6037 24.2555 33.0297 23.8295 33.0297 23.3059V12.1184C33.0297 11.5947 32.6037 11.1688 32.0801 11.1688H25.5106C25.8106 8.40741 28.1563 6.25081 30.9961 6.25081C31.3275 6.25081 31.5961 5.98226 31.5961 5.65081V1.45571C31.5961 1.12426 31.3275 0.855713 30.9961 0.855713C28.081 0.855713 25.3406 1.99086 23.2791 4.05201C21.2177 6.11336 20.0828 8.85376 20.0828 11.769L20.0826 23.306C20.0826 23.8297 20.509 24.2555 21.0326 24.2555Z" fill="#40B991"/>
<path d="M1.92034 24.2555H12.9679C13.4915 24.2555 13.9175 23.8295 13.9175 23.3059V12.1184C13.9175 11.5947 13.4915 11.1688 12.9679 11.1688H6.39834C6.69834 8.40741 9.04404 6.25081 11.8839 6.25081C12.2153 6.25081 12.4839 5.98226 12.4839 5.65081V1.45571C12.4839 1.12426 12.2153 0.855713 11.8839 0.855713C8.96879 0.855713 6.22834 1.99086 4.16684 4.05201C2.10549 6.11336 0.970337 8.85376 0.970337 11.769V23.306C0.970337 23.8297 1.39672 24.2555 1.92034 24.2555Z" fill="#40B991"/>
</g>
<defs>
<clipPath id="clip0_6208_4683">
<rect width="34" height="25" fill="white"/>
</clipPath>
</defs>
</svg>
