<svg width="12" height="10" viewBox="0 0 12 10" fill="none" xmlns="http://www.w3.org/2000/svg">
<path d="M12 5.00974C12 4.80673 11.9185 4.61204 11.7734 4.46847C11.6282 4.32494 11.4314 4.24426 11.2262 4.24426H2.73953L5.88503 1.34306C6.04353 1.20676 6.1392 1.01247 6.15003 0.804955C6.16086 0.597445 6.08592 0.394494 5.94247 0.242673C5.79902 0.0909214 5.59941 0.00333054 5.38933 9.31666e-05C5.17933 -0.00314628 4.97699 0.0782116 4.82881 0.225482L0.245972 4.44906C0.089108 4.59383 0 4.79654 0 5.00885C0 5.2211 0.0891048 5.42381 0.245972 5.56858L4.82881 9.79407C5.03095 9.98071 5.31842 10.0465 5.5829 9.96662C5.84738 9.88676 6.04871 9.67339 6.11105 9.40689C6.17333 9.14033 6.08718 8.86118 5.88503 8.67455L2.73953 5.77526H11.2262C11.4314 5.77526 11.6282 5.69459 11.7734 5.55106C11.9184 5.40746 12 5.21279 12 5.00978V5.00974Z" fill="#C04E4A"/>
</svg>
